<svg xmlns="http://www.w3.org/2000/svg" xmlns:xlink="http://www.w3.org/1999/xlink" width="500" zoomAndPan="magnify" viewBox="0 0 375 374.999991" height="500" preserveAspectRatio="xMidYMid meet" version="1.0"><defs><g/><clipPath id="070e0458a9"><path d="M 100.648438 172.292969 L 266.421875 172.292969 L 266.421875 200.492188 L 100.648438 200.492188 Z M 100.648438 172.292969 " clip-rule="nonzero"/></clipPath></defs><rect x="-37.5" width="450" fill="#ffffff" y="-37.499999" height="449.999989" fill-opacity="1"/><rect x="-37.5" width="450" fill="#ffffff" y="-37.499999" height="449.999989" fill-opacity="1"/><rect x="-37.5" width="450" fill="#000000" y="-37.499999" height="449.999989" fill-opacity="1"/><g fill="#ffffff" fill-opacity="1"><g transform="translate(109.258544, 229.599184)"><g><path d="M 67.203125 -41.421875 C 68.703125 -41.421875 69.957031 -40.894531 70.96875 -39.84375 C 71.988281 -38.800781 72.5 -37.53125 72.5 -36.03125 L 72.5 -10.6875 C 72.5 -8.664062 71.597656 -7.09375 69.796875 -5.96875 C 66.347656 -3.71875 62.554688 -1.972656 58.421875 -0.734375 C 54.296875 0.503906 50.054688 1.125 45.703125 1.125 C 38.203125 1.125 31.316406 -0.675781 25.046875 -4.28125 C 18.773438 -7.882812 13.835938 -12.78125 10.234375 -18.96875 C 6.640625 -25.15625 4.84375 -31.96875 4.84375 -39.40625 C 4.84375 -46.832031 6.640625 -53.640625 10.234375 -59.828125 C 13.835938 -66.023438 18.773438 -70.925781 25.046875 -74.53125 C 31.316406 -78.132812 38.203125 -79.9375 45.703125 -79.9375 C 49.453125 -79.9375 53.070312 -79.519531 56.5625 -78.6875 C 60.0625 -77.863281 63.195312 -76.628906 65.96875 -74.984375 C 66.875 -74.453125 67.550781 -73.8125 68 -73.0625 C 68.445312 -72.3125 68.671875 -71.488281 68.671875 -70.59375 C 68.671875 -69.082031 68.164062 -67.78125 67.15625 -66.6875 C 66.144531 -65.601562 64.925781 -65.0625 63.5 -65.0625 C 62.375 -65.0625 61.394531 -65.328125 60.5625 -65.859375 C 55.6875 -68.109375 50.734375 -69.234375 45.703125 -69.234375 C 40.296875 -69.234375 35.359375 -67.921875 30.890625 -65.296875 C 26.429688 -62.671875 22.90625 -59.066406 20.3125 -54.484375 C 17.726562 -49.910156 16.4375 -44.882812 16.4375 -39.40625 C 16.4375 -33.925781 17.726562 -28.914062 20.3125 -24.375 C 22.90625 -19.832031 26.429688 -16.226562 30.890625 -13.5625 C 35.359375 -10.894531 40.296875 -9.5625 45.703125 -9.5625 C 48.253906 -9.5625 50.9375 -9.863281 53.75 -10.46875 C 56.570312 -11.070312 58.992188 -11.859375 61.015625 -12.828125 L 61.015625 -30.734375 L 47.390625 -30.734375 C 45.890625 -30.734375 44.613281 -31.238281 43.5625 -32.25 C 42.507812 -33.269531 41.984375 -34.53125 41.984375 -36.03125 C 41.984375 -37.601562 42.507812 -38.894531 43.5625 -39.90625 C 44.613281 -40.914062 45.890625 -41.421875 47.390625 -41.421875 Z M 67.203125 -41.421875 "/></g></g></g><g fill="#ffffff" fill-opacity="1"><g transform="translate(187.494928, 229.599184)"><g><path d="M 67.203125 -41.421875 C 68.703125 -41.421875 69.957031 -40.894531 70.96875 -39.84375 C 71.988281 -38.800781 72.5 -37.53125 72.5 -36.03125 L 72.5 -10.6875 C 72.5 -8.664062 71.597656 -7.09375 69.796875 -5.96875 C 66.347656 -3.71875 62.554688 -1.972656 58.421875 -0.734375 C 54.296875 0.503906 50.054688 1.125 45.703125 1.125 C 38.203125 1.125 31.316406 -0.675781 25.046875 -4.28125 C 18.773438 -7.882812 13.835938 -12.78125 10.234375 -18.96875 C 6.640625 -25.15625 4.84375 -31.96875 4.84375 -39.40625 C 4.84375 -46.832031 6.640625 -53.640625 10.234375 -59.828125 C 13.835938 -66.023438 18.773438 -70.925781 25.046875 -74.53125 C 31.316406 -78.132812 38.203125 -79.9375 45.703125 -79.9375 C 49.453125 -79.9375 53.070312 -79.519531 56.5625 -78.6875 C 60.0625 -77.863281 63.195312 -76.628906 65.96875 -74.984375 C 66.875 -74.453125 67.550781 -73.8125 68 -73.0625 C 68.445312 -72.3125 68.671875 -71.488281 68.671875 -70.59375 C 68.671875 -69.082031 68.164062 -67.78125 67.15625 -66.6875 C 66.144531 -65.601562 64.925781 -65.0625 63.5 -65.0625 C 62.375 -65.0625 61.394531 -65.328125 60.5625 -65.859375 C 55.6875 -68.109375 50.734375 -69.234375 45.703125 -69.234375 C 40.296875 -69.234375 35.359375 -67.921875 30.890625 -65.296875 C 26.429688 -62.671875 22.90625 -59.066406 20.3125 -54.484375 C 17.726562 -49.910156 16.4375 -44.882812 16.4375 -39.40625 C 16.4375 -33.925781 17.726562 -28.914062 20.3125 -24.375 C 22.90625 -19.832031 26.429688 -16.226562 30.890625 -13.5625 C 35.359375 -10.894531 40.296875 -9.5625 45.703125 -9.5625 C 48.253906 -9.5625 50.9375 -9.863281 53.75 -10.46875 C 56.570312 -11.070312 58.992188 -11.859375 61.015625 -12.828125 L 61.015625 -30.734375 L 47.390625 -30.734375 C 45.890625 -30.734375 44.613281 -31.238281 43.5625 -32.25 C 42.507812 -33.269531 41.984375 -34.53125 41.984375 -36.03125 C 41.984375 -37.601562 42.507812 -38.894531 43.5625 -39.90625 C 44.613281 -40.914062 45.890625 -41.421875 47.390625 -41.421875 Z M 67.203125 -41.421875 "/></g></g></g><g clip-path="url(#070e0458a9)"><path fill="#000000" d="M 100.648438 172.292969 L 266.996094 172.292969 L 266.996094 200.210938 L 100.648438 200.210938 Z M 100.648438 172.292969 " fill-opacity="1" fill-rule="nonzero"/></g><g fill="#ffffff" fill-opacity="1"><g transform="translate(120.226901, 188.643782)"><g><path d="M 2.183594 1.441406 C 2.183594 1.441406 7.988281 -1.945312 9.285156 -2.832031 C 9.332031 -2.855469 9.1875 -3.023438 8.996094 -2.949219 C 8.230469 -2.757812 3.480469 0.289062 2.640625 0.695312 C 3.816406 -1.34375 4.941406 -2.734375 5.277344 -3.070312 C 5.566406 -3.359375 4.199219 -3.359375 3.984375 -3.214844 C 3.621094 -2.949219 3.285156 -2.519531 3.285156 -2.519531 C 3.214844 -3.359375 1.632812 -3.765625 0.480469 -3.238281 C -1.246094 -2.375 -3.503906 0.121094 -2.328125 1.367188 C -1.414062 2.253906 0.601562 0.769531 2.566406 -1.128906 C 2.015625 -0.382812 0.816406 1.558594 0.816406 1.558594 C -3.191406 3.40625 -10.390625 7.84375 -13.050781 11.421875 C -14.109375 12.835938 -14.660156 14.5625 -13.890625 15.476562 C -10.269531 19.867188 -1.824219 8.566406 2.183594 1.441406 Z M 2.207031 -1.609375 C 1.535156 -0.886719 -1.128906 1.535156 -1.777344 1.007812 C -2.183594 0.671875 -0.503906 -1.609375 1.320312 -2.664062 C 2.566406 -3.335938 2.949219 -2.664062 2.664062 -2.160156 C 2.613281 -2.085938 2.277344 -1.679688 2.207031 -1.609375 Z M -13.53125 13.628906 C -11.515625 8.660156 0.046875 2.328125 0.480469 2.207031 C -3.597656 8.375 -11.394531 18.257812 -13.554688 15.332031 C -13.914062 14.851562 -13.746094 14.179688 -13.53125 13.628906 Z M -13.53125 13.628906 "/></g></g></g><g fill="#ffffff" fill-opacity="1"><g transform="translate(128.646777, 188.643782)"><g><path d="M 0.121094 1.894531 C 2.589844 1.152344 4.871094 -0.984375 6.117188 -2.0625 C 6.527344 -2.496094 6.359375 -2.496094 5.902344 -2.160156 C 4.992188 -1.535156 1.175781 1.535156 -0.816406 1.34375 C -1.320312 1.34375 -1.824219 0.839844 -1.441406 -0.191406 C -1.367188 -0.359375 -1.296875 -0.144531 -0.769531 -0.121094 C 0.214844 -0.0234375 1.582031 -0.625 2.472656 -1.511719 C 2.925781 -1.992188 2.640625 -2.757812 2.015625 -3.023438 C 1.007812 -3.480469 -0.742188 -2.6875 -1.488281 -1.75 C -2.113281 -0.984375 -2.878906 0.191406 -2.375 1.273438 C -2.015625 2.039062 -1.152344 2.230469 0.121094 1.894531 Z M 1.441406 -2.664062 C 1.679688 -2.710938 1.917969 -2.734375 2.0625 -2.613281 C 2.304688 -2.445312 2.015625 -2.0625 1.824219 -1.871094 C 1.007812 -1.03125 -0.214844 -0.527344 -1.128906 -0.839844 C -0.625 -1.582031 0.335938 -2.445312 1.441406 -2.664062 Z M 1.441406 -2.664062 "/></g></g></g><g fill="#ffffff" fill-opacity="1"><g transform="translate(134.811754, 188.643782)"><g><path d="M 3.214844 -0.839844 C 1.800781 0.527344 0.769531 1.582031 1.414062 2.710938 C 1.609375 3.046875 2.085938 3.167969 2.542969 3.070312 C 4.824219 2.351562 7.507812 -0.289062 9.429688 -2.277344 C 9.765625 -2.640625 9.070312 -2.472656 8.996094 -2.398438 C 7.03125 -0.359375 3.238281 2.902344 2.304688 2.519531 C 1.367188 2.085938 4.65625 -0.40625 5.566406 -2.328125 C 5.710938 -2.613281 5.542969 -2.855469 5.300781 -2.976562 L 5.277344 -2.976562 C 4.460938 -3.046875 0.167969 -0.0703125 -0.457031 -0.671875 C -0.601562 -0.769531 -0.769531 -0.816406 -0.503906 -1.390625 C -0.265625 -1.511719 0.0703125 -1.703125 0.527344 -1.96875 C 1.222656 -2.472656 2.085938 -3.191406 1.945312 -3.359375 C 1.945312 -3.359375 1.679688 -3.695312 1.558594 -3.671875 C 0.816406 -3.597656 -0.625 -2.519531 -1.105469 -1.703125 C -1.917969 -0.3125 -0.910156 -0.144531 -0.550781 -0.121094 C 2.445312 -0.167969 4.152344 -2.328125 3.214844 -0.839844 Z M 3.214844 -0.839844 "/></g></g></g><g fill="#ffffff" fill-opacity="1"><g transform="translate(143.831335, 188.643782)"><g><path d="M 6.261719 0.625 C 6.980469 1.320312 8.734375 0.3125 11.875 -2.472656 C 12.164062 -2.734375 11.898438 -2.832031 11.539062 -2.589844 C 10.460938 -1.703125 7.582031 0.839844 6.933594 0.265625 C 6.667969 0.0234375 7.796875 -1.824219 7.988281 -2.253906 C 8.15625 -2.664062 7.75 -2.902344 7.652344 -2.976562 C 7.484375 -3.070312 7.03125 -3.359375 6.574219 -3.046875 C 5.902344 -2.542969 4.246094 -0.816406 3.527344 -0.046875 C 3.503906 -0.3125 4.292969 -1.632812 4.871094 -2.664062 C 4.992188 -2.878906 4.894531 -3.167969 4.679688 -3.285156 C 4.199219 -3.503906 3.71875 -3.527344 3.335938 -3.238281 C 2.328125 -2.496094 -0.191406 0.0234375 -1.054688 0.601562 C -0.625 -0.0234375 0.671875 -1.871094 0.792969 -2.328125 C 0.886719 -2.640625 0.816406 -2.855469 0.550781 -2.976562 C 0.359375 -3.070312 0.0976562 -3.09375 -0.0234375 -2.808594 C -0.550781 -1.441406 -1.582031 -0.359375 -2.351562 0.863281 C -2.542969 1.152344 -2.710938 1.441406 -2.375 1.679688 C -2.113281 1.847656 -1.824219 1.894531 -1.535156 1.703125 C -1.199219 1.464844 -0.863281 1.199219 -0.550781 0.9375 C 0.742188 -0.167969 3.550781 -2.757812 3.742188 -2.757812 C 3.40625 -2.085938 2.710938 -0.742188 2.421875 -0.0976562 C 2.253906 0.265625 2.542969 0.886719 2.902344 1.078125 C 3.214844 1.246094 3.621094 0.671875 3.742188 0.550781 C 4.605469 -0.238281 6.667969 -2.496094 7.03125 -2.566406 C 6.527344 -1.824219 5.566406 -0.0234375 6.261719 0.625 Z M 6.261719 0.625 "/></g></g></g><g fill="#ffffff" fill-opacity="1"><g transform="translate(155.489625, 188.643782)"><g><path d="M -2.304688 1.992188 C -1.367188 2.949219 0.816406 1.128906 2.015625 -0.457031 C 1.390625 1.007812 1.847656 1.632812 2.566406 1.992188 C 3.957031 2.6875 9.046875 -2.472656 8.949219 -2.640625 C 8.78125 -2.925781 3.695312 1.945312 2.949219 1.464844 C 2.421875 1.078125 3.117188 -0.839844 5.085938 -3.023438 C 5.300781 -3.261719 3.984375 -3.621094 3.574219 -3.167969 C 3.09375 -2.734375 2.878906 -2.472656 2.878906 -2.472656 C 2.832031 -3.09375 1.273438 -3.335938 0.503906 -2.949219 C -2.039062 -1.703125 -3.335938 1.152344 -2.304688 1.992188 Z M 2.519531 -2.375 C 2.664062 -2.085938 2.398438 -1.632812 2.230469 -1.464844 C 1.609375 -0.792969 0.648438 0.3125 -0.121094 0.984375 C -0.839844 1.609375 -1.609375 1.945312 -1.777344 1.777344 C -2.566406 1.03125 1.535156 -3.789062 2.519531 -2.375 Z M 2.519531 -2.375 "/></g></g></g><g fill="#ffffff" fill-opacity="1"><g transform="translate(164.005448, 188.643782)"><g><path d="M -2.542969 1.703125 C -2.277344 1.871094 -1.992188 2.085938 -1.679688 1.847656 C -1.414062 1.65625 -1.175781 1.441406 -0.960938 1.222656 C -0.527344 0.792969 3.40625 -2.976562 3.839844 -2.855469 C 3.984375 -2.6875 2.808594 -1.222656 2.351562 0.121094 C 2.183594 0.625 2.113281 1.007812 2.6875 1.441406 C 3.09375 1.800781 3.742188 1.65625 4.152344 1.390625 C 5.398438 0.601562 8.0625 -1.679688 8.851562 -2.542969 C 8.925781 -2.664062 9.09375 -3.046875 8.542969 -2.589844 C 7.367188 -1.75 3.863281 1.582031 3.335938 1.007812 C 2.855469 0.503906 4.796875 -1.800781 4.847656 -2.472656 C 4.964844 -2.878906 4.246094 -3.933594 3.453125 -3.480469 C 1.945312 -2.664062 -0.121094 -0.359375 -1.414062 0.648438 C -1.34375 0.3125 -0.839844 -0.550781 0.71875 -3.144531 C 0.382812 -3.285156 0.265625 -3.144531 0.144531 -3.023438 C -0.960938 -1.800781 -1.917969 -0.457031 -2.6875 0.984375 C -2.832031 1.273438 -2.808594 1.511719 -2.542969 1.703125 Z M -2.542969 1.703125 "/></g></g></g><g fill="#ffffff" fill-opacity="1"><g transform="translate(172.641216, 188.643782)"><g/></g></g><g fill="#ffffff" fill-opacity="1"><g transform="translate(182.236514, 188.643782)"><g><path d="M 2.183594 1.441406 C 2.183594 1.441406 7.988281 -1.945312 9.285156 -2.832031 C 9.332031 -2.855469 9.1875 -3.023438 8.996094 -2.949219 C 8.230469 -2.757812 3.480469 0.289062 2.640625 0.695312 C 3.816406 -1.34375 4.941406 -2.734375 5.277344 -3.070312 C 5.566406 -3.359375 4.199219 -3.359375 3.984375 -3.214844 C 3.621094 -2.949219 3.285156 -2.519531 3.285156 -2.519531 C 3.214844 -3.359375 1.632812 -3.765625 0.480469 -3.238281 C -1.246094 -2.375 -3.503906 0.121094 -2.328125 1.367188 C -1.414062 2.253906 0.601562 0.769531 2.566406 -1.128906 C 2.015625 -0.382812 0.816406 1.558594 0.816406 1.558594 C -3.191406 3.40625 -10.390625 7.84375 -13.050781 11.421875 C -14.109375 12.835938 -14.660156 14.5625 -13.890625 15.476562 C -10.269531 19.867188 -1.824219 8.566406 2.183594 1.441406 Z M 2.207031 -1.609375 C 1.535156 -0.886719 -1.128906 1.535156 -1.777344 1.007812 C -2.183594 0.671875 -0.503906 -1.609375 1.320312 -2.664062 C 2.566406 -3.335938 2.949219 -2.664062 2.664062 -2.160156 C 2.613281 -2.085938 2.277344 -1.679688 2.207031 -1.609375 Z M -13.53125 13.628906 C -11.515625 8.660156 0.046875 2.328125 0.480469 2.207031 C -3.597656 8.375 -11.394531 18.257812 -13.554688 15.332031 C -13.914062 14.851562 -13.746094 14.179688 -13.53125 13.628906 Z M -13.53125 13.628906 "/></g></g></g><g fill="#ffffff" fill-opacity="1"><g transform="translate(190.65639, 188.643782)"><g><path d="M -2.304688 1.992188 C -1.367188 2.949219 0.816406 1.128906 2.015625 -0.457031 C 1.390625 1.007812 1.847656 1.632812 2.566406 1.992188 C 3.957031 2.6875 9.046875 -2.472656 8.949219 -2.640625 C 8.78125 -2.925781 3.695312 1.945312 2.949219 1.464844 C 2.421875 1.078125 3.117188 -0.839844 5.085938 -3.023438 C 5.300781 -3.261719 3.984375 -3.621094 3.574219 -3.167969 C 3.09375 -2.734375 2.878906 -2.472656 2.878906 -2.472656 C 2.832031 -3.09375 1.273438 -3.335938 0.503906 -2.949219 C -2.039062 -1.703125 -3.335938 1.152344 -2.304688 1.992188 Z M 2.519531 -2.375 C 2.664062 -2.085938 2.398438 -1.632812 2.230469 -1.464844 C 1.609375 -0.792969 0.648438 0.3125 -0.121094 0.984375 C -0.839844 1.609375 -1.609375 1.945312 -1.777344 1.777344 C -2.566406 1.03125 1.535156 -3.789062 2.519531 -2.375 Z M 2.519531 -2.375 "/></g></g></g><g fill="#ffffff" fill-opacity="1"><g transform="translate(199.172213, 188.643782)"><g><path d="M 6.261719 0.625 C 6.980469 1.320312 8.734375 0.3125 11.875 -2.472656 C 12.164062 -2.734375 11.898438 -2.832031 11.539062 -2.589844 C 10.460938 -1.703125 7.582031 0.839844 6.933594 0.265625 C 6.667969 0.0234375 7.796875 -1.824219 7.988281 -2.253906 C 8.15625 -2.664062 7.75 -2.902344 7.652344 -2.976562 C 7.484375 -3.070312 7.03125 -3.359375 6.574219 -3.046875 C 5.902344 -2.542969 4.246094 -0.816406 3.527344 -0.046875 C 3.503906 -0.3125 4.292969 -1.632812 4.871094 -2.664062 C 4.992188 -2.878906 4.894531 -3.167969 4.679688 -3.285156 C 4.199219 -3.503906 3.71875 -3.527344 3.335938 -3.238281 C 2.328125 -2.496094 -0.191406 0.0234375 -1.054688 0.601562 C -0.625 -0.0234375 0.671875 -1.871094 0.792969 -2.328125 C 0.886719 -2.640625 0.816406 -2.855469 0.550781 -2.976562 C 0.359375 -3.070312 0.0976562 -3.09375 -0.0234375 -2.808594 C -0.550781 -1.441406 -1.582031 -0.359375 -2.351562 0.863281 C -2.542969 1.152344 -2.710938 1.441406 -2.375 1.679688 C -2.113281 1.847656 -1.824219 1.894531 -1.535156 1.703125 C -1.199219 1.464844 -0.863281 1.199219 -0.550781 0.9375 C 0.742188 -0.167969 3.550781 -2.757812 3.742188 -2.757812 C 3.40625 -2.085938 2.710938 -0.742188 2.421875 -0.0976562 C 2.253906 0.265625 2.542969 0.886719 2.902344 1.078125 C 3.214844 1.246094 3.621094 0.671875 3.742188 0.550781 C 4.605469 -0.238281 6.667969 -2.496094 7.03125 -2.566406 C 6.527344 -1.824219 5.566406 -0.0234375 6.261719 0.625 Z M 6.261719 0.625 "/></g></g></g><g fill="#ffffff" fill-opacity="1"><g transform="translate(210.830503, 188.643782)"><g><path d="M -1.367188 4.414062 C -1.078125 4.558594 -0.265625 4.511719 0.503906 2.949219 C 1.414062 1.105469 4.726562 -2.472656 6.429688 -2.207031 C 7.171875 -2.085938 5.613281 0.289062 4.773438 1.199219 C 3.550781 1.414062 2.566406 1.441406 1.777344 2.136719 C 1.679688 2.207031 1.582031 2.304688 1.511719 2.421875 C 1.175781 2.976562 1.464844 3.503906 2.136719 3.550781 C 2.421875 3.574219 2.664062 3.503906 2.878906 3.429688 C 3.863281 3.070312 4.917969 2.328125 5.832031 1.390625 C 7.316406 0.886719 8.925781 0.238281 11.707031 -2.472656 C 11.875 -2.640625 11.539062 -2.757812 11.324219 -2.589844 C 9.355469 -0.503906 7.726562 0.382812 6.335938 0.839844 C 6.886719 0.359375 7.871094 -0.984375 7.917969 -1.96875 C 7.964844 -2.734375 7.507812 -3.046875 7.101562 -3.070312 C 2.542969 -3.359375 -0.214844 3.816406 -0.839844 3.984375 C -2.160156 4.320312 -0.121094 -0.816406 0.503906 -1.96875 C 3.070312 -3.382812 14.492188 -8.46875 16.457031 -14.226562 C 17.179688 -16.148438 16.242188 -17.203125 14.949219 -17.226562 C 7.125 -17.226562 -5.085938 2.375 -1.367188 4.414062 Z M 2.183594 2.902344 C 2.113281 2.902344 2.039062 2.878906 2.015625 2.878906 C 1.992188 2.855469 2.015625 2.878906 1.992188 2.878906 C 1.992188 2.855469 2.015625 2.808594 2.039062 2.757812 C 2.398438 2.136719 3.09375 2.039062 4.125 1.847656 C 3.527344 2.375 2.734375 2.902344 2.183594 2.902344 Z M 14.5625 -16.769531 C 15.714844 -16.9375 16.386719 -16.601562 16.074219 -15.042969 C 15.1875 -10.125 3.3125 -3.863281 0.816406 -2.710938 C 3.984375 -8.398438 10.675781 -16.265625 14.5625 -16.769531 Z M 14.5625 -16.769531 "/></g></g></g><g fill="#ffffff" fill-opacity="1"><g transform="translate(222.057007, 188.643782)"><g><path d="M 5.328125 -2.207031 C 4.558594 -1.871094 3.648438 -1.367188 2.328125 -0.792969 C 2.664062 -1.296875 2.902344 -1.824219 2.925781 -2.328125 C 2.976562 -2.734375 2.613281 -3.238281 2.136719 -3.285156 C 0.191406 -3.527344 -2.421875 -1.222656 -1.800781 -0.382812 C -2.472656 0.289062 -2.902344 1.152344 -2.519531 1.726562 C -2.304688 2.085938 -1.945312 2.136719 -1.558594 2.085938 C -0.457031 1.917969 0.984375 0.910156 1.945312 -0.238281 C 3.285156 -0.816406 4.292969 -1.390625 5.566406 -2.160156 C 5.664062 -2.183594 5.46875 -2.277344 5.328125 -2.207031 Z M -0.71875 0.335938 C -0.40625 0.359375 -0.144531 0.335938 0.144531 0.3125 C 0.335938 0.265625 0.527344 0.214844 0.742188 0.167969 C -0.433594 1.273438 -1.199219 1.441406 -1.609375 1.367188 C -1.945312 1.320312 -1.609375 0.769531 -1.152344 0.265625 C -0.984375 0.3125 -0.839844 0.335938 -0.71875 0.335938 Z M 2.160156 -2.664062 C 2.710938 -2.398438 1.800781 -0.984375 1.34375 -0.433594 C 0.792969 -0.335938 -0.0976562 -0.167969 -0.574219 -0.265625 C 0.0234375 -0.769531 0.167969 -0.839844 -0.046875 -1.054688 C -0.0976562 -1.199219 -0.359375 -1.296875 -0.769531 -1.152344 C -0.167969 -2.136719 1.441406 -2.976562 2.160156 -2.664062 Z M 2.160156 -2.664062 "/></g></g></g><g fill="#ffffff" fill-opacity="1"><g transform="translate(227.166508, 188.643782)"><g><path d="M -2.304688 1.992188 C -1.367188 2.949219 0.816406 1.128906 2.015625 -0.457031 C 1.390625 1.007812 1.847656 1.632812 2.566406 1.992188 C 3.957031 2.6875 9.046875 -2.472656 8.949219 -2.640625 C 8.78125 -2.925781 3.695312 1.945312 2.949219 1.464844 C 2.421875 1.078125 3.117188 -0.839844 5.085938 -3.023438 C 5.300781 -3.261719 3.984375 -3.621094 3.574219 -3.167969 C 3.09375 -2.734375 2.878906 -2.472656 2.878906 -2.472656 C 2.832031 -3.09375 1.273438 -3.335938 0.503906 -2.949219 C -2.039062 -1.703125 -3.335938 1.152344 -2.304688 1.992188 Z M 2.519531 -2.375 C 2.664062 -2.085938 2.398438 -1.632812 2.230469 -1.464844 C 1.609375 -0.792969 0.648438 0.3125 -0.121094 0.984375 C -0.839844 1.609375 -1.609375 1.945312 -1.777344 1.777344 C -2.566406 1.03125 1.535156 -3.789062 2.519531 -2.375 Z M 2.519531 -2.375 "/></g></g></g><g fill="#ffffff" fill-opacity="1"><g transform="translate(235.682331, 188.643782)"><g><path d="M 3.214844 -0.839844 C 1.800781 0.527344 0.769531 1.582031 1.414062 2.710938 C 1.609375 3.046875 2.085938 3.167969 2.542969 3.070312 C 4.824219 2.351562 7.507812 -0.289062 9.429688 -2.277344 C 9.765625 -2.640625 9.070312 -2.472656 8.996094 -2.398438 C 7.03125 -0.359375 3.238281 2.902344 2.304688 2.519531 C 1.367188 2.085938 4.65625 -0.40625 5.566406 -2.328125 C 5.710938 -2.613281 5.542969 -2.855469 5.300781 -2.976562 L 5.277344 -2.976562 C 4.460938 -3.046875 0.167969 -0.0703125 -0.457031 -0.671875 C -0.601562 -0.769531 -0.769531 -0.816406 -0.503906 -1.390625 C -0.265625 -1.511719 0.0703125 -1.703125 0.527344 -1.96875 C 1.222656 -2.472656 2.085938 -3.191406 1.945312 -3.359375 C 1.945312 -3.359375 1.679688 -3.695312 1.558594 -3.671875 C 0.816406 -3.597656 -0.625 -2.519531 -1.105469 -1.703125 C -1.917969 -0.3125 -0.910156 -0.144531 -0.550781 -0.121094 C 2.445312 -0.167969 4.152344 -2.328125 3.214844 -0.839844 Z M 3.214844 -0.839844 "/></g></g></g><g fill="#ffffff" fill-opacity="1"><g transform="translate(244.701911, 188.643782)"><g><path d="M -2.230469 -10.894531 C -2.230469 -10.820312 -2.183594 -10.796875 -2.113281 -10.796875 C 0.527344 -11.371094 3.597656 -11.828125 6.621094 -12.140625 C 0.839844 -6.117188 -4.125 3.191406 -1.34375 4.703125 C -1.078125 4.847656 -0.574219 4.847656 -0.335938 4.824219 C 2.253906 4.414062 8.828125 -0.886719 10.582031 -2.664062 C 10.726562 -2.757812 10.507812 -3 10.363281 -2.878906 C 9.214844 -1.847656 1.152344 4.679688 -0.816406 4.03125 C -2.640625 3.40625 2.519531 -6.308594 8.15625 -12.285156 C 15.1875 -12.882812 21.59375 -12.667969 21.496094 -11.277344 C 21.496094 -11.085938 21.351562 -11.058594 21.304688 -10.917969 C 21.183594 -10.582031 21.714844 -10.414062 21.832031 -10.773438 C 21.808594 -10.75 21.929688 -11.058594 21.929688 -11.253906 C 22.074219 -13.53125 15.117188 -13.4375 8.613281 -12.765625 C 10.796875 -14.972656 13.027344 -16.578125 14.921875 -16.84375 C 14.972656 -16.84375 15.019531 -16.84375 15.066406 -16.867188 C 14.730469 -17.417969 14.324219 -17.25 13.890625 -17.15625 C 11.804688 -16.652344 9.382812 -14.898438 7.078125 -12.597656 C 2.039062 -11.996094 -2.304688 -11.132812 -2.230469 -10.894531 Z M -2.230469 -10.894531 "/></g></g></g></svg>