<svg xmlns="http://www.w3.org/2000/svg" xmlns:xlink="http://www.w3.org/1999/xlink" width="500" zoomAndPan="magnify" viewBox="0 0 375 374.999991" height="500" preserveAspectRatio="xMidYMid meet" version="1.0"><defs><g/><clipPath id="3722d1558b"><path d="M 160 128 L 183.75 128 L 183.75 152 L 160 152 Z M 160 128 " clip-rule="nonzero"/></clipPath><clipPath id="af18e5df00"><path d="M 142 106.90625 L 156 106.90625 L 156 120 L 142 120 Z M 142 106.90625 " clip-rule="nonzero"/></clipPath></defs><path fill="#0071a8" d="M 84.960938 145.757812 C 107.421875 136.382812 130.4375 134.839844 148.828125 139.949219 C 127.917969 130.664062 98.84375 130.914062 70.597656 142.703125 C 25.800781 161.402344 0.0820312 202.003906 13.140625 233.394531 C 22.773438 256.53125 50.792969 268.1875 82.808594 265.230469 C 43.714844 256.011719 34.921875 238.765625 31.402344 230.285156 C 19.222656 201.023438 43.203125 163.175781 84.960938 145.757812 Z M 84.960938 145.757812 " fill-opacity="1" fill-rule="nonzero"/><path fill="#62c7e3" d="M 179.335938 168.546875 C 176.871094 162.632812 172.910156 157.640625 167.839844 153.660156 C 151.140625 140.527344 122.328125 138.320312 94.492188 149.933594 C 74.046875 158.46875 58.5 172.636719 50.726562 187.933594 C 60 176.105469 73.636719 165.632812 90.324219 158.675781 C 125.269531 144.09375 161.671875 149.769531 177.066406 170.753906 C 178.859375 173.199219 180.390625 175.84375 181.574219 178.691406 C 181.714844 179.027344 181.824219 179.375 181.953125 179.714844 C 181.683594 175.886719 180.835938 172.144531 179.335938 168.546875 Z M 179.335938 168.546875 " fill-opacity="1" fill-rule="nonzero"/><g clip-path="url(#3722d1558b)"><path fill="#14bbe2" d="M 183.636719 139.894531 C 175.039062 141.484375 173.757812 142.765625 172.171875 151.378906 C 170.585938 142.765625 169.304688 141.484375 160.707031 139.894531 C 169.304688 138.308594 170.585938 137.027344 172.171875 128.414062 C 173.757812 137.035156 175.039062 138.320312 183.636719 139.894531 Z M 183.636719 139.894531 " fill-opacity="1" fill-rule="nonzero"/></g><g clip-path="url(#af18e5df00)"><path fill="#62c7e3" d="M 155.050781 113.417969 C 150.773438 114.648438 149.773438 115.648438 148.546875 119.933594 C 147.320312 115.648438 146.320312 114.648438 142.042969 113.417969 C 146.320312 112.191406 147.320312 111.191406 148.546875 106.90625 C 149.773438 111.191406 150.773438 112.191406 155.050781 113.417969 Z M 155.050781 113.417969 " fill-opacity="1" fill-rule="nonzero"/></g><path fill="#0071a8" d="M 172.171875 117.78125 C 170.03125 118.398438 169.53125 118.898438 168.914062 121.042969 C 168.296875 118.898438 167.796875 118.398438 165.65625 117.78125 C 167.796875 117.160156 168.296875 116.660156 168.914062 114.519531 C 169.53125 116.660156 170.03125 117.160156 172.171875 117.78125 Z M 172.171875 117.78125 " fill-opacity="1" fill-rule="nonzero"/><g fill="#0071a8" fill-opacity="1"><g transform="translate(65.379426, 233.775515)"><g><path d="M 14.171875 -32.71875 C 15.910156 -32.71875 17.613281 -32.460938 19.28125 -31.953125 C 20.945312 -31.453125 22.179688 -30.957031 22.984375 -30.46875 L 24.15625 -29.6875 L 21.1875 -23.84375 C 20.957031 -24 20.632812 -24.195312 20.21875 -24.4375 C 19.800781 -24.6875 19.019531 -25.019531 17.875 -25.4375 C 16.738281 -25.851562 15.675781 -26.0625 14.6875 -26.0625 C 13.46875 -26.0625 12.523438 -25.800781 11.859375 -25.28125 C 11.203125 -24.757812 10.875 -24.054688 10.875 -23.171875 C 10.875 -22.734375 11.023438 -22.328125 11.328125 -21.953125 C 11.640625 -21.578125 12.171875 -21.171875 12.921875 -20.734375 C 13.679688 -20.304688 14.347656 -19.960938 14.921875 -19.703125 C 15.492188 -19.453125 16.375 -19.066406 17.5625 -18.546875 C 19.644531 -17.660156 21.414062 -16.457031 22.875 -14.9375 C 24.34375 -13.414062 25.078125 -11.695312 25.078125 -9.78125 C 25.078125 -7.9375 24.742188 -6.320312 24.078125 -4.9375 C 23.421875 -3.5625 22.515625 -2.484375 21.359375 -1.703125 C 20.203125 -0.929688 18.921875 -0.359375 17.515625 0.015625 C 16.117188 0.390625 14.601562 0.578125 12.96875 0.578125 C 11.570312 0.578125 10.195312 0.4375 8.84375 0.15625 C 7.488281 -0.125 6.359375 -0.476562 5.453125 -0.90625 C 4.546875 -1.34375 3.726562 -1.765625 3 -2.171875 C 2.269531 -2.585938 1.738281 -2.941406 1.40625 -3.234375 L 0.890625 -3.65625 L 4.5625 -9.8125 C 4.875 -9.550781 5.300781 -9.21875 5.84375 -8.8125 C 6.382812 -8.414062 7.347656 -7.878906 8.734375 -7.203125 C 10.128906 -6.523438 11.359375 -6.1875 12.421875 -6.1875 C 15.515625 -6.1875 17.0625 -7.238281 17.0625 -9.34375 C 17.0625 -9.789062 16.953125 -10.203125 16.734375 -10.578125 C 16.515625 -10.953125 16.125 -11.328125 15.5625 -11.703125 C 15 -12.078125 14.503906 -12.375 14.078125 -12.59375 C 13.648438 -12.820312 12.945312 -13.160156 11.96875 -13.609375 C 11 -14.066406 10.28125 -14.410156 9.8125 -14.640625 C 7.863281 -15.609375 6.359375 -16.8125 5.296875 -18.25 C 4.234375 -19.6875 3.703125 -21.238281 3.703125 -22.90625 C 3.703125 -25.789062 4.765625 -28.144531 6.890625 -29.96875 C 9.023438 -31.800781 11.453125 -32.71875 14.171875 -32.71875 Z M 14.171875 -32.71875 "/></g></g></g><g fill="#0071a8" fill-opacity="1"><g transform="translate(91.546088, 233.775515)"><g><path d="M 31.59375 0 L 21.5 0 L 9.65625 -13.640625 L 9.65625 0 L 2.34375 0 L 2.34375 -32.140625 L 9.65625 -32.140625 L 9.65625 -19.015625 L 20.6875 -32.140625 L 29.5625 -32.140625 L 16.640625 -16.90625 Z M 31.59375 0 "/></g></g></g><g fill="#0071a8" fill-opacity="1"><g transform="translate(122.190664, 233.775515)"><g/></g></g><g fill="#0071a8" fill-opacity="1"><g transform="translate(132.820869, 233.775515)"><g><path d="M 19.4375 -6.625 C 20.550781 -6.625 21.632812 -6.789062 22.6875 -7.125 C 23.738281 -7.46875 24.515625 -7.796875 25.015625 -8.109375 L 25.75 -8.609375 L 28.859375 -2.375 C 28.753906 -2.300781 28.609375 -2.195312 28.421875 -2.0625 C 28.242188 -1.9375 27.820312 -1.695312 27.15625 -1.34375 C 26.5 -0.988281 25.796875 -0.679688 25.046875 -0.421875 C 24.296875 -0.160156 23.304688 0.0664062 22.078125 0.265625 C 20.859375 0.472656 19.601562 0.578125 18.3125 0.578125 C 15.320312 0.578125 12.488281 -0.148438 9.8125 -1.609375 C 7.132812 -3.078125 4.976562 -5.097656 3.34375 -7.671875 C 1.707031 -10.242188 0.890625 -13.023438 0.890625 -16.015625 C 0.890625 -18.273438 1.367188 -20.441406 2.328125 -22.515625 C 3.296875 -24.585938 4.578125 -26.363281 6.171875 -27.84375 C 7.765625 -29.332031 9.625 -30.515625 11.75 -31.390625 C 13.882812 -32.273438 16.070312 -32.71875 18.3125 -32.71875 C 20.382812 -32.71875 22.296875 -32.46875 24.046875 -31.96875 C 25.804688 -31.476562 27.050781 -30.988281 27.78125 -30.5 L 28.859375 -29.765625 L 25.75 -23.53125 C 25.5625 -23.6875 25.285156 -23.875 24.921875 -24.09375 C 24.566406 -24.3125 23.84375 -24.601562 22.75 -24.96875 C 21.65625 -25.332031 20.550781 -25.515625 19.4375 -25.515625 C 17.664062 -25.515625 16.078125 -25.226562 14.671875 -24.65625 C 13.273438 -24.082031 12.164062 -23.328125 11.34375 -22.390625 C 10.53125 -21.460938 9.910156 -20.457031 9.484375 -19.375 C 9.054688 -18.300781 8.84375 -17.207031 8.84375 -16.09375 C 8.84375 -13.644531 9.753906 -11.453125 11.578125 -9.515625 C 13.410156 -7.585938 16.03125 -6.625 19.4375 -6.625 Z M 19.4375 -6.625 "/></g></g></g><g fill="#0071a8" fill-opacity="1"><g transform="translate(162.141532, 233.775515)"><g><path d="M 9.65625 -32.140625 L 9.65625 -6.421875 L 20.71875 -6.421875 L 20.71875 0 L 2.34375 0 L 2.34375 -32.140625 Z M 9.65625 -32.140625 "/></g></g></g><g fill="#0071a8" fill-opacity="1"><g transform="translate(184.141772, 233.775515)"><g><path d="M 20.71875 -32.140625 L 20.71875 -25.703125 L 9.65625 -25.703125 L 9.65625 -19.328125 L 20.25 -19.328125 L 20.25 -12.890625 L 9.65625 -12.890625 L 9.65625 -6.421875 L 20.71875 -6.421875 L 20.71875 0 L 2.34375 0 L 2.34375 -32.140625 Z M 20.71875 -32.140625 "/></g></g></g><g fill="#0071a8" fill-opacity="1"><g transform="translate(206.726077, 233.775515)"><g><path d="M 18.65625 -32.140625 L 31.625 0 L 23.765625 0 L 21.390625 -6.421875 L 9.15625 -6.421875 L 6.78125 0 L -1.09375 0 L 11.875 -32.140625 Z M 18.890625 -12.859375 L 15.3125 -22.203125 L 15.234375 -22.203125 L 11.640625 -12.859375 Z M 18.890625 -12.859375 "/></g></g></g><g fill="#0071a8" fill-opacity="1"><g transform="translate(237.253843, 233.775515)"><g><path d="M 9.65625 -19.9375 L 9.65625 0 L 2.34375 0 L 2.34375 -32.140625 L 9.65625 -32.140625 L 22.4375 -12.1875 L 22.515625 -12.1875 L 22.515625 -32.140625 L 29.84375 -32.140625 L 29.84375 0 L 22.515625 0 L 9.734375 -19.9375 Z M 9.65625 -19.9375 "/></g></g></g><g fill="#0071a8" fill-opacity="1"><g transform="translate(269.417014, 233.775515)"><g><path d="M 9.65625 -32.140625 L 9.65625 0 L 2.34375 0 L 2.34375 -32.140625 Z M 9.65625 -32.140625 "/></g></g></g><g fill="#0071a8" fill-opacity="1"><g transform="translate(281.410069, 233.775515)"><g><path d="M 9.65625 -19.9375 L 9.65625 0 L 2.34375 0 L 2.34375 -32.140625 L 9.65625 -32.140625 L 22.4375 -12.1875 L 22.515625 -12.1875 L 22.515625 -32.140625 L 29.84375 -32.140625 L 29.84375 0 L 22.515625 0 L 9.734375 -19.9375 Z M 9.65625 -19.9375 "/></g></g></g><g fill="#0071a8" fill-opacity="1"><g transform="translate(313.57324, 233.775515)"><g><path d="M 31.390625 -18 L 31.390625 -11.03125 C 30.566406 -7.207031 28.75 -4.316406 25.9375 -2.359375 C 23.132812 -0.398438 20.007812 0.578125 16.5625 0.578125 C 12.21875 0.578125 8.519531 -1.039062 5.46875 -4.28125 C 2.414062 -7.53125 0.890625 -11.453125 0.890625 -16.046875 C 0.890625 -20.722656 2.382812 -24.671875 5.375 -27.890625 C 8.363281 -31.109375 12.09375 -32.71875 16.5625 -32.71875 C 21.78125 -32.71875 25.90625 -30.890625 28.9375 -27.234375 L 24.15625 -21.96875 C 22.4375 -24.71875 20.046875 -26.09375 16.984375 -26.09375 C 14.722656 -26.09375 12.789062 -25.113281 11.1875 -23.15625 C 9.59375 -21.195312 8.796875 -18.828125 8.796875 -16.046875 C 8.796875 -13.316406 9.59375 -10.984375 11.1875 -9.046875 C 12.789062 -7.117188 14.722656 -6.15625 16.984375 -6.15625 C 18.847656 -6.15625 20.472656 -6.71875 21.859375 -7.84375 C 23.253906 -8.976562 23.953125 -10.476562 23.953125 -12.34375 L 16.5625 -12.34375 L 16.5625 -18 Z M 31.390625 -18 "/></g></g></g><g fill="#5b5b5b" fill-opacity="1"><g transform="translate(163.205303, 262.751331)"><g><path d="M 5.984375 -2.78125 C 5.984375 -3.320312 5.832031 -3.738281 5.53125 -4.03125 C 5.238281 -4.320312 4.703125 -4.601562 3.921875 -4.875 C 3.148438 -5.15625 2.5625 -5.445312 2.15625 -5.75 C 1.75 -6.0625 1.441406 -6.410156 1.234375 -6.796875 C 1.023438 -7.191406 0.921875 -7.640625 0.921875 -8.140625 C 0.921875 -9.015625 1.210938 -9.734375 1.796875 -10.296875 C 2.378906 -10.859375 3.140625 -11.140625 4.078125 -11.140625 C 4.722656 -11.140625 5.296875 -10.992188 5.796875 -10.703125 C 6.304688 -10.410156 6.695312 -10.007812 6.96875 -9.5 C 7.238281 -8.988281 7.375 -8.425781 7.375 -7.8125 L 5.984375 -7.8125 C 5.984375 -8.488281 5.816406 -9.007812 5.484375 -9.375 C 5.160156 -9.75 4.691406 -9.9375 4.078125 -9.9375 C 3.523438 -9.9375 3.09375 -9.78125 2.78125 -9.46875 C 2.476562 -9.164062 2.328125 -8.734375 2.328125 -8.171875 C 2.328125 -7.703125 2.488281 -7.3125 2.8125 -7 C 3.144531 -6.6875 3.660156 -6.410156 4.359375 -6.171875 C 5.441406 -5.804688 6.210938 -5.363281 6.671875 -4.84375 C 7.140625 -4.320312 7.375 -3.640625 7.375 -2.796875 C 7.375 -1.898438 7.082031 -1.179688 6.5 -0.640625 C 5.925781 -0.109375 5.144531 0.15625 4.15625 0.15625 C 3.507812 0.15625 2.914062 0.015625 2.375 -0.265625 C 1.832031 -0.546875 1.40625 -0.9375 1.09375 -1.4375 C 0.789062 -1.945312 0.640625 -2.53125 0.640625 -3.1875 L 2.03125 -3.1875 C 2.03125 -2.507812 2.21875 -1.976562 2.59375 -1.59375 C 2.976562 -1.21875 3.5 -1.03125 4.15625 -1.03125 C 4.757812 -1.03125 5.210938 -1.1875 5.515625 -1.5 C 5.828125 -1.8125 5.984375 -2.238281 5.984375 -2.78125 Z M 5.984375 -2.78125 "/></g></g></g><g fill="#5b5b5b" fill-opacity="1"><g transform="translate(174.63599, 262.751331)"><g><path d="M 6.453125 -5.078125 L 2.5625 -5.078125 L 2.5625 -1.1875 L 7.09375 -1.1875 L 7.09375 0 L 1.1875 0 L 1.1875 -10.984375 L 7.015625 -10.984375 L 7.015625 -9.796875 L 2.5625 -9.796875 L 2.5625 -6.265625 L 6.453125 -6.265625 Z M 6.453125 -5.078125 "/></g></g></g><g fill="#5b5b5b" fill-opacity="1"><g transform="translate(185.734901, 262.751331)"><g><path d="M 4.5 -4.4375 L 2.578125 -4.4375 L 2.578125 0 L 1.1875 0 L 1.1875 -10.984375 L 4.265625 -10.984375 C 5.335938 -10.984375 6.148438 -10.703125 6.703125 -10.140625 C 7.253906 -9.578125 7.53125 -8.757812 7.53125 -7.6875 C 7.53125 -7 7.378906 -6.398438 7.078125 -5.890625 C 6.785156 -5.390625 6.363281 -5.015625 5.8125 -4.765625 L 7.953125 -0.09375 L 7.953125 0 L 6.453125 0 Z M 2.578125 -5.625 L 4.25 -5.625 C 4.820312 -5.625 5.28125 -5.8125 5.625 -6.1875 C 5.976562 -6.5625 6.15625 -7.0625 6.15625 -7.6875 C 6.15625 -9.09375 5.515625 -9.796875 4.234375 -9.796875 L 2.578125 -9.796875 Z M 2.578125 -5.625 "/></g></g></g><g fill="#5b5b5b" fill-opacity="1"><g transform="translate(197.361639, 262.751331)"><g><path d="M 4.328125 -2.125 L 6.84375 -10.984375 L 8.359375 -10.984375 L 4.9375 0 L 3.734375 0 L 0.3125 -10.984375 L 1.828125 -10.984375 Z M 4.328125 -2.125 "/></g></g></g><g fill="#5b5b5b" fill-opacity="1"><g transform="translate(209.440794, 262.751331)"><g><path d="M 2.625 0 L 1.25 0 L 1.25 -10.984375 L 2.625 -10.984375 Z M 2.625 0 "/></g></g></g><g fill="#5b5b5b" fill-opacity="1"><g transform="translate(216.731822, 262.751331)"><g><path d="M 8.078125 -3.484375 C 8.015625 -2.304688 7.679688 -1.40625 7.078125 -0.78125 C 6.484375 -0.15625 5.632812 0.15625 4.53125 0.15625 C 3.425781 0.15625 2.550781 -0.257812 1.90625 -1.09375 C 1.257812 -1.9375 0.9375 -3.078125 0.9375 -4.515625 L 0.9375 -6.5 C 0.9375 -7.925781 1.269531 -9.054688 1.9375 -9.890625 C 2.601562 -10.722656 3.507812 -11.140625 4.65625 -11.140625 C 5.71875 -11.140625 6.539062 -10.820312 7.125 -10.1875 C 7.707031 -9.550781 8.023438 -8.640625 8.078125 -7.453125 L 6.671875 -7.453125 C 6.617188 -8.347656 6.429688 -8.984375 6.109375 -9.359375 C 5.796875 -9.742188 5.3125 -9.9375 4.65625 -9.9375 C 3.90625 -9.9375 3.328125 -9.644531 2.921875 -9.0625 C 2.523438 -8.476562 2.328125 -7.617188 2.328125 -6.484375 L 2.328125 -4.46875 C 2.328125 -3.363281 2.515625 -2.515625 2.890625 -1.921875 C 3.265625 -1.328125 3.8125 -1.03125 4.53125 -1.03125 C 5.25 -1.03125 5.765625 -1.207031 6.078125 -1.5625 C 6.398438 -1.914062 6.597656 -2.554688 6.671875 -3.484375 Z M 8.078125 -3.484375 "/></g></g></g><g fill="#5b5b5b" fill-opacity="1"><g transform="translate(228.916542, 262.751331)"><g><path d="M 6.453125 -5.078125 L 2.5625 -5.078125 L 2.5625 -1.1875 L 7.09375 -1.1875 L 7.09375 0 L 1.1875 0 L 1.1875 -10.984375 L 7.015625 -10.984375 L 7.015625 -9.796875 L 2.5625 -9.796875 L 2.5625 -6.265625 L 6.453125 -6.265625 Z M 6.453125 -5.078125 "/></g></g></g><g fill="#5b5b5b" fill-opacity="1"><g transform="translate(240.015453, 262.751331)"><g><path d="M 5.984375 -2.78125 C 5.984375 -3.320312 5.832031 -3.738281 5.53125 -4.03125 C 5.238281 -4.320312 4.703125 -4.601562 3.921875 -4.875 C 3.148438 -5.15625 2.5625 -5.445312 2.15625 -5.75 C 1.75 -6.0625 1.441406 -6.410156 1.234375 -6.796875 C 1.023438 -7.191406 0.921875 -7.640625 0.921875 -8.140625 C 0.921875 -9.015625 1.210938 -9.734375 1.796875 -10.296875 C 2.378906 -10.859375 3.140625 -11.140625 4.078125 -11.140625 C 4.722656 -11.140625 5.296875 -10.992188 5.796875 -10.703125 C 6.304688 -10.410156 6.695312 -10.007812 6.96875 -9.5 C 7.238281 -8.988281 7.375 -8.425781 7.375 -7.8125 L 5.984375 -7.8125 C 5.984375 -8.488281 5.816406 -9.007812 5.484375 -9.375 C 5.160156 -9.75 4.691406 -9.9375 4.078125 -9.9375 C 3.523438 -9.9375 3.09375 -9.78125 2.78125 -9.46875 C 2.476562 -9.164062 2.328125 -8.734375 2.328125 -8.171875 C 2.328125 -7.703125 2.488281 -7.3125 2.8125 -7 C 3.144531 -6.6875 3.660156 -6.410156 4.359375 -6.171875 C 5.441406 -5.804688 6.210938 -5.363281 6.671875 -4.84375 C 7.140625 -4.320312 7.375 -3.640625 7.375 -2.796875 C 7.375 -1.898438 7.082031 -1.179688 6.5 -0.640625 C 5.925781 -0.109375 5.144531 0.15625 4.15625 0.15625 C 3.507812 0.15625 2.914062 0.015625 2.375 -0.265625 C 1.832031 -0.546875 1.40625 -0.9375 1.09375 -1.4375 C 0.789062 -1.945312 0.640625 -2.53125 0.640625 -3.1875 L 2.03125 -3.1875 C 2.03125 -2.507812 2.21875 -1.976562 2.59375 -1.59375 C 2.976562 -1.21875 3.5 -1.03125 4.15625 -1.03125 C 4.757812 -1.03125 5.210938 -1.1875 5.515625 -1.5 C 5.828125 -1.8125 5.984375 -2.238281 5.984375 -2.78125 Z M 5.984375 -2.78125 "/></g></g></g></svg>